<svg xmlns="http://www.w3.org/2000/svg" width="600" height="600" viewBox="0 0 600 600" role="img" aria-label="Default music cover">
  <defs>
    <linearGradient id="cover-bg" x1="80" y1="60" x2="520" y2="540" gradientUnits="userSpaceOnUse">
      <stop offset="0" stop-color="#f7fbff"/>
      <stop offset="0.52" stop-color="#e8f4f1"/>
      <stop offset="1" stop-color="#f5edf7"/>
    </linearGradient>
    <linearGradient id="note" x1="210" y1="130" x2="390" y2="430" gradientUnits="userSpaceOnUse">
      <stop offset="0" stop-color="#2f80ed"/>
      <stop offset="1" stop-color="#2dbd8f"/>
    </linearGradient>
  </defs>
  <rect width="600" height="600" rx="56" fill="url(#cover-bg)"/>
  <rect x="52" y="52" width="496" height="496" rx="44" fill="#ffffff" fill-opacity="0.55" stroke="#d8e2ea" stroke-width="2"/>
  <circle cx="244" cy="382" r="58" fill="url(#note)"/>
  <circle cx="396" cy="342" r="58" fill="url(#note)"/>
  <path d="M286 182c0-13 10-24 23-26l154-25c15-2 28 9 28 24v181h-42V187l-121 20v175h-42V182z" fill="url(#note)"/>
  <path d="M328 207l121-20v48l-121 20v-48z" fill="#1b5fbc" fill-opacity="0.18"/>
  <path d="M166 472h268" stroke="#bfd0dc" stroke-width="16" stroke-linecap="round" opacity="0.7"/>
  <path d="M194 504h212" stroke="#d7e1e9" stroke-width="12" stroke-linecap="round" opacity="0.8"/>
</svg>
