<svg width="512" height="512" viewBox="0 0 168 168" fill="none" xmlns="http://www.w3.org/2000/svg">
  <defs>
    <linearGradient id="panelGradient" x1="18" y1="14" x2="150" y2="154" gradientUnits="userSpaceOnUse">
      <stop stop-color="#0A1424" />
      <stop offset="1" stop-color="#08111C" />
    </linearGradient>
    <linearGradient id="waveGradient" x1="38" y1="30" x2="120" y2="136" gradientUnits="userSpaceOnUse">
      <stop stop-color="#3B82F6" />
      <stop offset="0.55" stop-color="#4DA3FF" />
      <stop offset="1" stop-color="#F6FBFF" />
    </linearGradient>
    <filter id="iconShadow" x="0" y="0" width="168" height="168" filterUnits="userSpaceOnUse" color-interpolation-filters="sRGB">
      <feDropShadow dx="0" dy="10" stdDeviation="10" flood-color="#050A14" flood-opacity="0.28" />
    </filter>
  </defs>

  <g filter="url(#iconShadow)">
    <rect x="12" y="12" width="144" height="144" rx="38" fill="url(#panelGradient)" />
    <rect x="13.5" y="13.5" width="141" height="141" rx="36.5" stroke="#F6FBFF" stroke-opacity="0.08" stroke-width="3" />
  </g>

  <g opacity="0.18">
    <rect x="36" y="42" width="10" height="24" rx="5" fill="#4DA3FF" />
    <rect x="122" y="64" width="10" height="30" rx="5" fill="#F6FBFF" />
    <rect x="36" y="102" width="10" height="22" rx="5" fill="#4DA3FF" />
  </g>

  <path
    d="M120 49C109 39 94 34 78 35C60 36 48 46 48 61C48 75 57 82 79 87C101 92 109 99 109 111C109 124 98 133 81 135C65 137 51 132 40 121"
    stroke="url(#waveGradient)"
    stroke-width="12"
    stroke-linecap="round"
    stroke-linejoin="round"
  />

  <circle cx="120" cy="49" r="5.5" fill="#F6FBFF" />
</svg>
