<svg width="960" height="260" viewBox="0 0 960 260" fill="none" xmlns="http://www.w3.org/2000/svg">
  <defs>
    <style>
      @font-face {
        font-family: 'Orbitron';
        src: url('./Orbitron-Bold.ttf') format('truetype');
        font-weight: 700;
      }

      @font-face {
        font-family: 'Orbitron';
        src: url('./Orbitron-Regular.ttf') format('truetype');
        font-weight: 400;
      }

      .brand {
        font-family: 'Orbitron', sans-serif;
        font-size: 92px;
        font-weight: 700;
        letter-spacing: 0.16em;
      }

      .subline {
        font-family: 'Orbitron', sans-serif;
        font-size: 24px;
        font-weight: 400;
        letter-spacing: 0.5em;
      }
    </style>

    <linearGradient id="panelGradient" x1="40" y1="34" x2="200" y2="194" gradientUnits="userSpaceOnUse">
      <stop stop-color="#0A1424" />
      <stop offset="1" stop-color="#08111C" />
    </linearGradient>
    <linearGradient id="waveGradient" x1="68" y1="54" x2="159" y2="165" gradientUnits="userSpaceOnUse">
      <stop stop-color="#3B82F6" />
      <stop offset="0.55" stop-color="#4DA3FF" />
      <stop offset="1" stop-color="#F6FBFF" />
    </linearGradient>
    <linearGradient id="ruleGradient" x1="284" y1="178" x2="692" y2="178" gradientUnits="userSpaceOnUse">
      <stop stop-color="#1F7CFF" />
      <stop offset="1" stop-color="#08111C" />
    </linearGradient>
  </defs>

  <g>
    <rect x="40" y="34" width="160" height="160" rx="42" fill="url(#panelGradient)" />
    <rect x="41.5" y="35.5" width="157" height="157" rx="40.5" stroke="#F6FBFF" stroke-opacity="0.08" stroke-width="3" />

    <g opacity="0.18">
      <rect x="66" y="66" width="10" height="24" rx="5" fill="#4DA3FF" />
      <rect x="152" y="88" width="10" height="30" rx="5" fill="#F6FBFF" />
      <rect x="66" y="126" width="10" height="22" rx="5" fill="#4DA3FF" />
    </g>

    <path
      d="M150 73C139 63 124 58 108 59C90 60 78 70 78 85C78 99 87 106 109 111C131 116 139 123 139 135C139 148 128 157 111 159C95 161 81 156 70 145"
      stroke="url(#waveGradient)"
      stroke-width="12"
      stroke-linecap="round"
      stroke-linejoin="round"
    />

    <circle cx="150" cy="73" r="5.5" fill="#F6FBFF" />
  </g>

  <text x="282" y="114" class="brand">
    <tspan fill="#08111C">SON</tspan><tspan fill="#1F7CFF">ORA</tspan>
  </text>
  <text x="285" y="159" class="subline" fill="#50657F">MUSIC PLATFORM</text>
  <rect x="284" y="176" width="408" height="8" rx="4" fill="url(#ruleGradient)" />
</svg>
